<?xml version="1.0" encoding="utf-8"?>
<!-- Generator: Adobe Illustrator 18.0.0, SVG Export Plug-In . SVG Version: 6.00 Build 0)  -->
<!DOCTYPE svg PUBLIC "-//W3C//DTD SVG 1.1//EN" "http://www.w3.org/Graphics/SVG/1.1/DTD/svg11.dtd">
<svg version="1.1" id="Layer_1" xmlns="http://www.w3.org/2000/svg" xmlns:xlink="http://www.w3.org/1999/xlink" x="0px" y="0px"
	 viewBox="0 0 500 320" enable-background="new 0 0 500 320" xml:space="preserve">
<path fill="#1AA7D8" d="M470,320H30c-16.5,0-30-13.5-30-30V30C0,13.5,13.5,0,30,0h440c16.5,0,30,13.5,30,30v260
	C500,306.5,486.5,320,470,320z"/>
<path fill="#FFFFFF" d="M491,291c0,11-9,20-20,20H31c-11,0-20-9-20-20V31c0-11,9-20,20-20h440c11,0,20,9,20,20V291z M481,31
	c0-5.5-4.5-10-10-10H31c-5.5,0-10,4.5-10,10v260c0,5.5,4.5,10,10,10h440c5.5,0,10-4.5,10-10V31z"/>
<g>
	<path fill="#FFFFFF" d="M58,122l-8-19l-8,19 M231,114c-1.5,1-3.5,1-5.5,1h-14v-10.5h14c2,0,4,0,5.5,1c1.5,0.5,2.5,2,2.5,4
		C233.5,111.5,232.5,113.5,231,114z M330.5,122l-8-19l-8,19H330.5z M145,142.5h-12V105l-16.5,37.5h-10L90,105v37.5H66.5L62,132H38
		l-4.5,10.5H21l20.5-48h17L78,140V94.5h18.5l15,32.5l14-32.5h19L145,142.5L145,142.5z M192,142.5h-38.5v-48H192v10h-27v8.5h26v10
		h-26v9.5h27V142.5z M246,107.5c0,7.5-5,11.5-8,13c2.5,1,4.5,2.5,5.5,4c1.5,2.5,2,4.5,2,9v9.5H234v-6c0-3,0.5-7-2-9.5
		c-1.5-1.5-4-2-8.5-2H211V143h-11.5V95H226c6,0,10,0,14,2.5C244,99,246,102,246,107.5z M264.5,142.5H253v-48h11.5V142.5z
		 M400.5,142.5H384l-22-36v36h-23.5L334,132h-24l-4.5,10.5H292c-5.5,0-12.5-1-16.5-5.5c-4-4-6-9.5-6-18.5c0-7,1.5-13.5,6-19
		c3.5-4,9.5-5.5,17.5-5.5h11v10.5h-11c-4,0-6.5,0.5-9,3c-2,2-3.5,6-3.5,11s1,9,3,11.5c2,2,5,2.5,8,2.5h5l16-38h17L349,140V94.5h17.5
		l20,33.5V94.5h12L400.5,142.5L400.5,142.5z M21,152h19.5l4.5-10.5h10l4.5,10.5H98v-8l3.5,8h20l3.5-8.5v8.5h96v-17.5h2
		c1.5,0,1.5,0,1.5,2.5v15H274v-4c4,2,10,4,18.5,4h21l4.5-10.5h10l4.5,10.5h40v-10l6,10h32V85h-32v8l-4.5-8h-32.5v8l-4-8h-44
		c-7.5,0-14,1-19,4v-4H244v4c-3.5-3-8-4-13-4H119.5l-7.5,17.5L104.5,85h-35v8l-4-8h-30l-14,32L21,152L21,152z"/>
	<path fill="#FFFFFF" d="M481.5,187.5h-21c-2,0-3.5,0-4.5,1c-1,1-1.5,2-1.5,3.5c0,2,1,3,2.5,3.5c1,0.5,2.5,0.5,4.5,0.5h6
		c6.5,0,10.5,1,13,4c0.5,0.5,0.5,1,1,1 M481.5,219c-3,4-8,6-15.5,6h-22v-10.5h22c2,0,3.5-0.5,4.5-1c1-0.5,1.5-2,1.5-3
		c0-1.5-0.5-2.5-1.5-3c-1-0.5-2-1-4-1c-11-0.5-24,0.5-24-15c0-7,4.5-14.5,16.5-14.5h23v-9.5h-21.5c-6.5,0-11,1.5-14.5,4v-4h-31.5
		c-5,0-11,1-13.5,4v-4h-56v4c-4.5-3-12-4-15.5-4h-37v4c-3.5-3.5-11.5-4-16-4H235l-9.5,10.5l-9-10.5h-62v67h61l10-10.5l9,10.5H272
		v-16h3.5c5,0,11,0,16-2.5v18h31v-17.5h1.5c2,0,2,0,2,2V234h94c6,0,12-1.5,15.5-4.5v4.5h30c6,0,12-1,17-3L481.5,219L481.5,219z
		 M435.5,200c2,2.5,3.5,5,3.5,10c0,10.5-6.5,15-18,15h-22.5v-10.5H421c2,0,3.5-0.5,4.5-1c1-0.5,1.5-2,1.5-3c0-1.5-0.5-2.5-1.5-3
		c-1-0.5-2-1-4-1c-10.5-0.5-24,0.5-24-15c0-7,4.5-14.5,16.5-14.5h23v10h-21c-2,0-3.5,0-4.5,1c-1.5,1-1.5,2-1.5,3.5c0,2,1,3,2.5,3.5
		c1,0.5,2.5,0.5,4.5,0.5h6C428.5,196,433,197.5,435.5,200z M332,197c-1.5,1-3.5,1-5.5,1h-14v-11h14c2,0,4,0,5.5,1
		c1.5,1,2.5,2.5,2.5,4.5C334,194.5,333.5,196,332,197z M338.5,203c2.5,1,4.5,2.5,5.5,4c1.5,2.5,2,4.5,2,9v9.5h-11.5v-6
		c0-3,0.5-7-2-9.5c-1.5-1.5-4-2-8.5-2h-12.5v17.5H300v-48h26.5c6,0,10,0.5,14,2.5c3.5,2,6,5,6,10.5C347,198,341.5,201.5,338.5,203z
		 M353,177h38.5v10h-27v8.5h26v10h-26v9.5h27v10H353V177z M275.5,199.5h-15v-12h15c4,0,7,1.5,7,6C283,197,280,199.5,275.5,199.5z
		 M249.5,221L232,201.5l17.5-19V221z M204,215h-28v-9.5h25v-10h-25V187h29l12.5,14L204,215z M295,193c0,13.5-10,16-20,16h-14v16
		h-22.5l-14-16L210,225h-45.5v-48h46l14,16l14.5-16h36.5C285,177,295,179.5,295,193z"/>
</g>
</svg>
