<?xml version="1.0" encoding="utf-8"?>
<!-- Generator: Adobe Illustrator 18.0.0, SVG Export Plug-In . SVG Version: 6.00 Build 0)  -->
<!DOCTYPE svg PUBLIC "-//W3C//DTD SVG 1.1//EN" "http://www.w3.org/Graphics/SVG/1.1/DTD/svg11.dtd">
<svg version="1.1" id="Layer_1" xmlns="http://www.w3.org/2000/svg" xmlns:xlink="http://www.w3.org/1999/xlink" x="0px" y="0px"
	 viewBox="0 0 500 320" enable-background="new 0 0 500 320" xml:space="preserve">
<path fill="#C3C6CC" d="M469.7,320H30.3C13.8,320,0,306.2,0,289.7V30.3C0,13.8,13.8,0,30.3,0h439.4C486.2,0,500,13.8,500,30.3v259.5
	C500,306.2,486.2,320,469.7,320z"/>
<rect y="66.6" fill="#717785" width="500" height="89.1"/>
<path fill="#FFFFFF" d="M248.1,275.9H57.8c-4.3,0-7.8-3.5-7.8-7.8v-34.6c0-4.3,3.5-7.8,7.8-7.8h190.3c4.3,0,7.8,3.5,7.8,7.8v34.6
	C255.9,272.4,252.4,275.9,248.1,275.9z"/>
<path fill="#EA4F4B" d="M471.2,298.4H328.5c-6.1,0-10.4-4.3-10.4-10.4v-84.8c0-6.1,4.3-10.4,10.4-10.4h142.7
	c6.1,0,10.4,4.3,10.4,10.4V288C481.6,294.1,477.2,298.4,471.2,298.4z M328.5,203.2V288h142.7l0,0v-84.8H328.5z"/>
<rect x="328.5" y="203.2" fill="#FFFFFF" width="142.7" height="84.8"/>
<g>
	<path fill="#4A4E56" d="M360.3,266.5v-27.1h-10.5v-6.4c1.5,0,2.9-0.1,4.3-0.3c1.4-0.3,2.6-0.7,3.7-1.4c1.1-0.7,2-1.5,2.8-2.6
		c0.8-1.1,1.3-2.4,1.5-4h6.7v41.7H360.3z"/>
	<path fill="#4A4E56" d="M381.6,234.2c0.6-2,1.6-3.8,2.9-5.4c1.3-1.5,2.9-2.7,4.8-3.6c1.9-0.9,4.1-1.3,6.6-1.3
		c1.9,0,3.7,0.3,5.5,0.9c1.7,0.6,3.3,1.5,4.6,2.6c1.3,1.1,2.4,2.5,3.1,4.1c0.8,1.6,1.2,3.5,1.2,5.5c0,2.1-0.3,3.9-1,5.4
		c-0.7,1.5-1.6,2.9-2.7,4c-1.1,1.2-2.4,2.2-3.8,3.2c-1.4,1-2.8,1.9-4.3,2.8c-1.4,0.9-2.8,1.9-4.2,3c-1.4,1.1-2.5,2.3-3.6,3.8h19.7
		v7.3h-30.6c0-2.4,0.3-4.5,1-6.3c0.7-1.8,1.6-3.4,2.8-4.8c1.2-1.4,2.6-2.7,4.2-3.9c1.6-1.2,3.3-2.4,5.1-3.6c0.9-0.6,1.9-1.3,2.9-1.9
		c1-0.7,2-1.4,2.8-2.2c0.9-0.8,1.6-1.7,2.1-2.7c0.6-1,0.9-2.1,0.9-3.4c0-2-0.6-3.6-1.8-4.7c-1.2-1.1-2.7-1.7-4.5-1.7
		c-1.2,0-2.3,0.3-3.1,0.9c-0.9,0.6-1.5,1.3-2.1,2.3c-0.5,0.9-0.9,2-1.1,3.1s-0.3,2.3-0.3,3.4h-8.1
		C380.7,238.4,381,236.2,381.6,234.2z"/>
	<path fill="#4A4E56" d="M434.3,241.7c1-0.1,2-0.3,2.9-0.7c0.9-0.4,1.6-0.9,2.2-1.6c0.6-0.7,0.9-1.7,0.9-2.9c0-1.8-0.6-3.2-1.8-4.1
		c-1.2-1-2.6-1.4-4.1-1.4c-2.1,0-3.8,0.7-4.9,2.1c-1.1,1.4-1.6,3.2-1.6,5.3h-8c0.1-2.1,0.5-4.1,1.2-5.9c0.7-1.8,1.7-3.3,2.9-4.6
		c1.3-1.3,2.8-2.3,4.5-2.9c1.7-0.7,3.7-1,5.8-1c1.7,0,3.3,0.2,5,0.7c1.7,0.5,3.2,1.2,4.5,2.2c1.3,1,2.4,2.2,3.2,3.6
		c0.8,1.4,1.3,3.1,1.3,4.9c0,2-0.5,3.8-1.5,5.4c-1,1.6-2.4,2.6-4.4,3.2v0.1c2.3,0.5,4.1,1.6,5.4,3.3c1.3,1.7,2,3.8,2,6.1
		c0,2.2-0.4,4.1-1.3,5.8c-0.9,1.7-2,3.1-3.4,4.3c-1.4,1.1-3.1,2-4.9,2.6c-1.9,0.6-3.8,0.9-5.8,0.9c-2.3,0-4.5-0.3-6.4-1
		c-1.9-0.7-3.6-1.7-4.9-2.9c-1.3-1.3-2.4-2.9-3.1-4.7c-0.7-1.9-1.1-4-1-6.4h8c0,1.1,0.2,2.2,0.5,3.2c0.3,1,0.8,1.9,1.4,2.6
		c0.6,0.7,1.3,1.3,2.2,1.8c0.9,0.4,2,0.7,3.2,0.7c1.9,0,3.5-0.6,4.8-1.8c1.3-1.2,2-2.8,2-4.8c0-1.6-0.3-2.8-0.9-3.6
		c-0.6-0.8-1.4-1.4-2.4-1.8c-1-0.4-2-0.6-3.1-0.7c-1.1-0.1-2.2-0.1-3.2-0.1v-6C432.3,241.7,433.2,241.7,434.3,241.7z"/>
</g>
</svg>
