<?xml version="1.0" encoding="utf-8"?>
<!-- Generator: Adobe Illustrator 18.0.0, SVG Export Plug-In . SVG Version: 6.00 Build 0)  -->
<!DOCTYPE svg PUBLIC "-//W3C//DTD SVG 1.1//EN" "http://www.w3.org/Graphics/SVG/1.1/DTD/svg11.dtd">
<svg version="1.1" id="Layer_1" xmlns="http://www.w3.org/2000/svg" xmlns:xlink="http://www.w3.org/1999/xlink" x="0px" y="0px"
	 viewBox="0 0 500 320" enable-background="new 0 0 500 320" xml:space="preserve">
<path fill="#0B69AA" d="M470,320H30c-16.5,0-30-13.5-30-30V30C0,13.5,13.5,0,30,0h440c16.5,0,30,13.5,30,30v260
	C500,306.5,486.5,320,470,320z"/>
<g>
	<g>
		<path fill="#EA4F4B" d="M250,105c-15.5-17.5-37.5-28.5-62.5-28.5c-46,0-83.5,37.5-83.5,83.5s37.5,83.5,83.5,83.5
			c25,0,47.5-11,62.5-28.5c-13-14.5-21-34-21-55S237,119.5,250,105z"/>
		<path fill="#EA4F4B" d="M250,105c-13,14.5-21,34-21,55s8,40.5,21,55c13-14.5,21-34,21-55S263,119.5,250,105z"/>
	</g>
	<path fill="#FFB727" d="M312.5,76.5c-25,0-47.5,11-62.5,28.5c-3.5,4-7,8.5-9.5,13.5h19c3,5,5.5,11,7.5,16.5h-34
		c-1.5,5.5-3,11-3.5,16.5H270c0.5,3,0.5,5.5,0.5,8.5c0,3,0,5.5-0.5,8.5h-41c0.5,6,2,11.5,3.5,16.5h34c-2,6-4.5,11.5-7.5,16.5h-18.5
		c3,4.5,6,9,9.5,13.5c15.5,17.5,37.5,28.5,62.5,28.5c46,0,83.5-37.5,83.5-83.5C396,114,358.5,76.5,312.5,76.5z"/>
</g>
<g id="g10289_1_">
	<path id="path4157_1_" fill="#FFFFFF" d="M208.5,192l1.5-11.5c-1,0-2.5,0.5-3.5,0.5c-5,0-5.5-2.5-5-4.5l4-24h7.5l2-13h-7l1.5-8H196
		c-0.5,0.5-8,45-8,50.5c0,8,4.5,11.5,11,11.5C203,194,207,192.5,208.5,192z"/>
	<path id="path4155_1_" fill="#FFFFFF" d="M212.5,170c0,19.5,13,24,23.5,24c10,0,14.5-2,14.5-2l2.5-13c0,0-7.5,3.5-14.5,3.5
		c-14.5,0-12-11-12-11h28c0,0,2-9,2-12.5c0-9-4.5-20-19.5-20C223,138,212.5,153,212.5,170z M236.5,150.5c7.5,0,6.5,8.5,6.5,9.5h-15
		C228,159,229,150.5,236.5,150.5z"/>
	<path id="path4151_1_" fill="#FFFFFF" d="M323.5,192l2.5-15c0,0-6.5,3.5-11.5,3.5c-9.5,0-13.5-7.5-13.5-15.5c0-16,8.5-25,17.5-25
		c7,0,12.5,4,12.5,4l2-14.5c0,0-8.5-3.5-15.5-3.5c-16,0-31,13.5-31,39.5c0,17,8.5,28.5,24.5,28.5C316,194,323.5,192,323.5,192z"/>
	<path id="path4149_3_" fill="#FFFFFF" d="M133,138.5c-9.5,0-16.5,3-16.5,3l-2,12c0,0,6-2.5,15-2.5c5,0,9,0.5,9,4.5
		c0,2.5-0.5,3.5-0.5,3.5s-4-0.5-6-0.5c-12,0-24.5,5-24.5,20.5c0,12,8,15,13,15c9.5,0,14-6.5,14-6.5l-0.5,5h12l5.5-37.5
		C151.5,139,138,138.5,133,138.5z M136,169c0.5,2.5-1.5,13-9.5,13c-4.5,0-5.5-3.5-5.5-5c0-4,2-8.5,12-8.5C135,169,135.5,169,136,169
		z"/>
	<path id="path4145_1_" fill="#FFFFFF" d="M164.5,193.5c3,0,20.5,1,20.5-17.5c0-17-16.5-13.5-16.5-20.5c0-3.5,2.5-4.5,7.5-4.5
		c2,0,9.5,0.5,9.5,0.5l1.5-12c0,0-5-1-12.5-1c-10,0-20.5,4-20.5,18c0,15.5,17,14,17,20.5c0,4.5-5,5-8.5,5c-6.5,0-12-2-12-2l-2,12
		C149.5,192,153,193.5,164.5,193.5z"/>
	<path id="path4139_1_" fill="#FFFFFF" d="M437,127.5l-3,18.5c0,0-5-7-13-7c-12.5,0-23,15-23,32.5c0,11,5.5,22,17,22
		c8,0,13-5.5,13-5.5l-0.5,5H441l10.5-65L437,127.5z M430.5,163.5c0,7-3.5,17-11,17c-5,0-7-4-7-10.5c0-10.5,5-17.5,11-17.5
		C428,152,430.5,155.5,430.5,163.5z"/>
	<path id="path4133_1_" fill="#FFFFFF" d="M58.5,192.5l8.5-49l1,49h9.5l17.5-49l-8,49h14l11-65.5H90.5L77,167l-0.5-40h-20l-11,65.5
		H58.5z"/>
	<path id="path4131_3_" fill="#FFFFFF" d="M270,193c4-22.5,4.5-41,14-37.5c1.5-9,3.5-12,5-16c0,0-1,0-2.5,0c-6,0-10.5,8.5-10.5,8.5
		l1-7.5h-13l-8.5,53L270,193L270,193z"/>
	<g id="use8523_1_" transform="translate(847.0062,0)">
		<path id="path4149_2_" fill="#FFFFFF" d="M-492,138.5c-9.5,0-16.5,3-16.5,3l-2,12c0,0,6-2.5,15-2.5c5,0,9,0.5,9,4.5
			c0,2.5-0.5,3.5-0.5,3.5s-4-0.5-6-0.5c-12,0-24.5,5-24.5,20.5c0,12,8,15,13,15c9.5,0,14-6.5,14-6.5l-0.5,5h12l5.5-37.5
			C-473,139-487,138.5-492,138.5z M-489,169c0.5,2.5-1.5,13-9.5,13c-4.5,0-5.5-3.5-5.5-5c0-4,2-8.5,12-8.5
			C-489.5,169-489.5,169-489,169z"/>
	</g>
	<g id="use8525_1_" transform="translate(442.2857,0)">
		<path id="path4131_2_" fill="#FFFFFF" d="M-57.4,193c4-22.5,4.5-41,14-37.5c1.5-9,3.5-12,5-16c0,0-1,0-2.5,0
			c-6,0-10.5,8.5-10.5,8.5l1-7.5h-13l-8.5,53L-57.4,193L-57.4,193z"/>
	</g>
	<path id="text9407_1_" fill="#FFFFFF" d="M450.5,184.5c0.5,0,1.5,0,2,0.5c0.5,0.5,1,1,1.5,1.5c0.5,0.5,0.5,1.5,0.5,2
		c0,0.5,0,1.5-0.5,2c-0.5,0.5-1,1-1.5,1.5c-0.5,0.5-1.5,0.5-2,0.5c-0.5,0-1.5,0-2-0.5c-0.5-0.5-1-1-1.5-1.5c-0.5-0.5-0.5-1.5-0.5-2
		c0-0.5,0-1.5,0.5-2c0.5-0.5,1-1,1.5-1.5C449,185,449.5,184.5,450.5,184.5 M450.5,185.5c-0.5,0-1,0-1.5,0.5c-0.5,0.5-1,0.5-1.5,1.5
		c-0.5,0.5-0.5,1-0.5,1.5c0,0.5,0,1,0.5,1.5c0.5,0.5,0.5,1,1.5,1.5c0.5,0.5,1,0.5,1.5,0.5s1,0,1.5-0.5c0.5-0.5,1-0.5,1.5-1.5
		c0.5-0.5,0.5-1,0.5-1.5c0-0.5,0-1-0.5-1.5c-0.5-0.5-0.5-1-1.5-1.5C451.5,185.5,451,185.5,450.5,185.5 M448.5,191v-4.5h1.5
		c0.5,0,1,0,1,0s0.5,0,0.5,0.5v0.5c0,0.5,0,0.5-0.5,1c0,0-0.5,0.5-1,0.5h0.5c0,0,0.5,0.5,0.5,1l0.5,1h-1l-0.5-0.5
		c-0.5-0.5-0.5-1-1-1h-0.5H448L448.5,191L448.5,191 M449.5,188.5h1c0.5,0,0.5,0,1,0V188v-0.5c0,0,0,0-0.5,0h-0.5h-1V188.5"/>
</g>
</svg>
