<?xml version="1.0" encoding="utf-8"?>
<!-- Generator: Adobe Illustrator 18.0.0, SVG Export Plug-In . SVG Version: 6.00 Build 0)  -->
<!DOCTYPE svg PUBLIC "-//W3C//DTD SVG 1.1//EN" "http://www.w3.org/Graphics/SVG/1.1/DTD/svg11.dtd">
<svg version="1.1" id="Layer_1" xmlns="http://www.w3.org/2000/svg" xmlns:xlink="http://www.w3.org/1999/xlink" x="0px" y="0px"
	 viewBox="0 0 500 320" enable-background="new 0 0 500 320" xml:space="preserve">
<path fill="#F3F4F4" d="M470,320H30c-16.5,0-30-13.5-30-30V30C0,13.5,13.5,0,30,0h440c16.5,0,30,13.5,30,30v260
	C500,306.5,486.5,320,470,320z"/>
<path fill="#0B69AA" d="M500,77.5H0V30C0,13.5,13.5,0,30,0h440c16.5,0,30,13.5,30,30V77.5z"/>
<path fill="#FFB727" d="M500,242.5H0V290c0,16.5,13.5,30,30,30h440c16.5,0,30-13.5,30-30V242.5z"/>
<g>
	<polygon fill="#0B69AA" points="201.5,209 218,111.5 244.5,111.5 228,209 	"/>
	<path fill="#0B69AA" d="M324,114c-5-2-13.5-4-23.5-4c-26,0-44.5,13-45,32c0,14,13,22,23,26.5c10.5,5,14,8,13.5,12
		c0,6.5-8,9.5-16,9.5c-10.5,0-16-1.5-25-5l-3.5-1.5l-3.5,22c6,2.5,17.5,5,29.5,5c28,0,46-13,46-33c0-11-7-19.5-22-26.5
		c-9.5-4.5-15-7.5-15-12c0-4,5-8.5,15-8.5c8.5,0,15,2,20,3.5l2.5,1L324,114"/>
	<path fill="#0B69AA" d="M392,111.5h-20.5c-6.5,0-11,1.5-14,8l-39.5,89h28c0,0,4.5-12,5.5-14.5c3,0,30,0,34,0c1,3.5,3,14.5,3,14.5
		H413L392,111.5 M359.5,174.5c2-5.5,10.5-27,10.5-27c0,0.5,2-5.5,3.5-9.5l2,8.5c0,0,5,23,6,28L359.5,174.5L359.5,174.5z"/>
	<path fill="#0B69AA" d="M179.5,111.5l-26,66.5l-3-13.5c-5-15.5-20-32.5-36.5-41l23.5,85h28l41.5-97L179.5,111.5"/>
	<path fill="#FFB727" d="M129.5,111.5H87l-0.5,2c33,8,55,27.5,64.5,51l-9.5-44.5C139.5,113.5,135,112,129.5,111.5"/>
</g>
</svg>
